<svg xmlns="http://www.w3.org/2000/svg" width="32.958" height="32.626" viewBox="0 0 32.958 32.626">
  <g id="pencil-square" transform="translate(-2.25 -1.124)">
    <path id="Path_6" data-name="Path 6" d="M34.88,4.365a1.125,1.125,0,0,1,0,1.588L32.533,8.3l-4.5-4.5L30.38,1.454a1.125,1.125,0,0,1,1.591,0L34.88,4.363ZM30.942,9.891l-4.5-4.5L11.113,20.723a1.125,1.125,0,0,0-.272.441L9.03,26.6a.563.563,0,0,0,.711.711L15.173,25.5a1.125,1.125,0,0,0,.441-.27L30.943,9.894Z" fill="#2d2d2d"/>
    <path id="Path_7" data-name="Path 7" d="M2.25,30.375A3.375,3.375,0,0,0,5.625,33.75h24.75a3.375,3.375,0,0,0,3.375-3.375v-13.5a1.125,1.125,0,0,0-2.25,0v13.5A1.125,1.125,0,0,1,30.375,31.5H5.625A1.125,1.125,0,0,1,4.5,30.375V5.625A1.125,1.125,0,0,1,5.625,4.5H20.25a1.125,1.125,0,0,0,0-2.25H5.625A3.375,3.375,0,0,0,2.25,5.625Z" fill="#2d2d2d" fill-rule="evenodd"/>
  </g>
</svg>
